<svg version="1.1" xmlns="http://www.w3.org/2000/svg" xmlns:xlink="http://www.w3.org/1999/xlink" width="24" height="21"><defs/><g><path fill="rgb(0,0,0)" stroke="none" paint-order="stroke fill markers" fill-rule="evenodd" d=" M 12.493125915527344 1.0003161430358887 C 12.493125915527344 1.0003161430358887 15.955821990966797 6.971092224121094 15.955821990966797 6.971092224121094 C 15.955821990966797 6.971092224121094 22.998516082763672 8.257420063018799 22.998516082763672 8.257420063018799 C 22.998516082763672 8.257420063018799 18.096057891845703 13.233871459960938 18.096057891845703 13.233871459960938 C 18.096057891845703 13.233871459960938 18.985931396484375 19.999535083770752 18.985931396484375 19.999535083770752 C 18.985931396484375 19.999535083770752 12.493125915527344 17.104060649871826 12.493125915527344 17.104060649871826 C 12.493125915527344 17.104060649871826 6.000511169433594 19.999535083770752 6.000511169433594 19.999535083770752 C 6.000511169433594 19.999535083770752 6.890193939208984 13.233871459960938 6.890193939208984 13.233871459960938 C 6.890193939208984 13.233871459960938 1.9879264831542969 8.257420063018799 1.9879264831542969 8.257420063018799 C 1.9879264831542969 8.257420063018799 9.03042984008789 6.971092224121094 9.03042984008789 6.971092224121094 C 9.03042984008789 6.971092224121094 12.493125915527344 1.0003161430358887 12.493125915527344 1.0003161430358887 C 12.493125915527344 1.0003161430358887 12.493125915527344 1.0003161430358887 12.493125915527344 1.0003161430358887"/></g></svg>